<svg width="358" height="116" viewBox="0 0 358 116" fill="none" xmlns="http://www.w3.org/2000/svg">
<path d="M145.367 39.3633H140.744L139.865 42H137.062L141.825 29.2031H144.269L149.059 42H146.255L145.367 39.3633ZM141.456 37.2275H144.655L143.047 32.4375L141.456 37.2275Z" fill="white"/>
<path d="M153.891 38.8975L155.658 32.4902H158.312L155.104 42H152.678L149.47 32.4902H152.124L153.891 38.8975Z" fill="white"/>
<path d="M165.491 42C165.374 41.7715 165.289 41.4873 165.236 41.1475C164.621 41.833 163.821 42.1758 162.837 42.1758C161.905 42.1758 161.132 41.9062 160.516 41.3672C159.907 40.8281 159.602 40.1484 159.602 39.3281C159.602 38.3203 159.974 37.5469 160.719 37.0078C161.469 36.4688 162.55 36.1963 163.962 36.1904H165.131V35.6455C165.131 35.2061 165.016 34.8545 164.788 34.5908C164.565 34.3271 164.211 34.1953 163.724 34.1953C163.297 34.1953 162.96 34.2979 162.714 34.5029C162.473 34.708 162.353 34.9893 162.353 35.3467H159.813C159.813 34.7959 159.983 34.2861 160.323 33.8174C160.663 33.3486 161.143 32.9824 161.764 32.7188C162.386 32.4492 163.083 32.3145 163.856 32.3145C165.028 32.3145 165.957 32.6104 166.642 33.2021C167.334 33.7881 167.68 34.6143 167.68 35.6807V39.8027C167.685 40.7051 167.811 41.3877 168.057 41.8506V42H165.491ZM163.39 40.2334C163.765 40.2334 164.111 40.1514 164.428 39.9873C164.744 39.8174 164.978 39.5918 165.131 39.3105V37.6758H164.181C162.91 37.6758 162.233 38.1152 162.151 38.9941L162.142 39.1436C162.142 39.46 162.254 39.7207 162.476 39.9258C162.699 40.1309 163.004 40.2334 163.39 40.2334Z" fill="white"/>
<path d="M172.995 42H170.447V32.4902H172.995V42ZM170.297 30.0293C170.297 29.6484 170.423 29.335 170.675 29.0889C170.933 28.8428 171.281 28.7197 171.721 28.7197C172.155 28.7197 172.5 28.8428 172.758 29.0889C173.016 29.335 173.145 29.6484 173.145 30.0293C173.145 30.416 173.013 30.7324 172.749 30.9785C172.491 31.2246 172.149 31.3477 171.721 31.3477C171.293 31.3477 170.948 31.2246 170.684 30.9785C170.426 30.7324 170.297 30.416 170.297 30.0293Z" fill="white"/>
<path d="M178.461 42H175.912V28.5H178.461V42Z" fill="white"/>
<path d="M186.756 42C186.639 41.7715 186.554 41.4873 186.501 41.1475C185.886 41.833 185.086 42.1758 184.102 42.1758C183.17 42.1758 182.397 41.9062 181.781 41.3672C181.172 40.8281 180.867 40.1484 180.867 39.3281C180.867 38.3203 181.239 37.5469 181.983 37.0078C182.733 36.4688 183.815 36.1963 185.227 36.1904H186.396V35.6455C186.396 35.2061 186.281 34.8545 186.053 34.5908C185.83 34.3271 185.476 34.1953 184.989 34.1953C184.562 34.1953 184.225 34.2979 183.979 34.5029C183.738 34.708 183.618 34.9893 183.618 35.3467H181.078C181.078 34.7959 181.248 34.2861 181.588 33.8174C181.928 33.3486 182.408 32.9824 183.029 32.7188C183.65 32.4492 184.348 32.3145 185.121 32.3145C186.293 32.3145 187.222 32.6104 187.907 33.2021C188.599 33.7881 188.944 34.6143 188.944 35.6807V39.8027C188.95 40.7051 189.076 41.3877 189.322 41.8506V42H186.756ZM184.655 40.2334C185.03 40.2334 185.376 40.1514 185.692 39.9873C186.009 39.8174 186.243 39.5918 186.396 39.3105V37.6758H185.446C184.175 37.6758 183.498 38.1152 183.416 38.9941L183.407 39.1436C183.407 39.46 183.519 39.7207 183.741 39.9258C183.964 40.1309 184.269 40.2334 184.655 40.2334Z" fill="white"/>
<path d="M200.149 37.333C200.149 38.8564 199.824 40.0459 199.173 40.9014C198.523 41.751 197.615 42.1758 196.449 42.1758C195.417 42.1758 194.594 41.7803 193.979 40.9893L193.865 42H191.58V28.5H194.12V33.3428C194.706 32.6572 195.476 32.3145 196.431 32.3145C197.591 32.3145 198.5 32.7422 199.156 33.5977C199.818 34.4473 200.149 35.6455 200.149 37.1924V37.333ZM197.609 37.1484C197.609 36.1875 197.457 35.4873 197.152 35.0479C196.847 34.6025 196.393 34.3799 195.79 34.3799C194.981 34.3799 194.424 34.7109 194.12 35.373V39.126C194.43 39.7939 194.993 40.1279 195.807 40.1279C196.627 40.1279 197.167 39.7236 197.424 38.915C197.547 38.5283 197.609 37.9395 197.609 37.1484Z" fill="white"/>
<path d="M205.087 42H202.538V28.5H205.087V42Z" fill="white"/>
<path d="M212.248 42.1758C210.854 42.1758 209.717 41.748 208.838 40.8926C207.965 40.0371 207.529 38.8975 207.529 37.4736V37.2275C207.529 36.2725 207.713 35.4199 208.082 34.6699C208.451 33.9141 208.973 33.334 209.647 32.9297C210.326 32.5195 211.1 32.3145 211.967 32.3145C213.268 32.3145 214.29 32.7246 215.035 33.5449C215.785 34.3652 216.16 35.5283 216.16 37.0342V38.0713H210.104C210.186 38.6924 210.432 39.1904 210.842 39.5654C211.258 39.9404 211.783 40.1279 212.415 40.1279C213.394 40.1279 214.159 39.7734 214.709 39.0645L215.957 40.4619C215.576 41.001 215.061 41.4229 214.41 41.7275C213.76 42.0264 213.039 42.1758 212.248 42.1758ZM211.958 34.3711C211.454 34.3711 211.044 34.541 210.728 34.8809C210.417 35.2207 210.218 35.707 210.13 36.3398H213.663V36.1377C213.652 35.5752 213.499 35.1416 213.206 34.8369C212.913 34.5264 212.497 34.3711 211.958 34.3711Z" fill="white"/>
<path d="M223.065 37.1572C223.065 36.2139 223.246 35.373 223.61 34.6348C223.973 33.8965 224.494 33.3252 225.174 32.9209C225.86 32.5166 226.653 32.3145 227.556 32.3145C228.839 32.3145 229.885 32.707 230.694 33.4922C231.508 34.2773 231.962 35.3438 232.056 36.6914L232.073 37.3418C232.073 38.8008 231.666 39.9727 230.852 40.8574C230.037 41.7363 228.944 42.1758 227.573 42.1758C226.202 42.1758 225.107 41.7363 224.286 40.8574C223.472 39.9785 223.065 38.7832 223.065 37.2715V37.1572ZM225.605 37.3418C225.605 38.2441 225.775 38.9355 226.114 39.416C226.454 39.8906 226.941 40.1279 227.573 40.1279C228.189 40.1279 228.669 39.8936 229.015 39.4248C229.361 38.9502 229.533 38.1943 229.533 37.1572C229.533 36.2725 229.361 35.5869 229.015 35.1006C228.669 34.6143 228.183 34.3711 227.556 34.3711C226.935 34.3711 226.454 34.6143 226.114 35.1006C225.775 35.5811 225.605 36.3281 225.605 37.3418Z" fill="white"/>
<path d="M236.66 32.4902L236.739 33.5889C237.419 32.7393 238.33 32.3145 239.472 32.3145C240.48 32.3145 241.23 32.6104 241.722 33.2021C242.214 33.7939 242.466 34.6787 242.478 35.8564V42H239.938V35.918C239.938 35.3789 239.821 34.9893 239.587 34.749C239.352 34.5029 238.962 34.3799 238.418 34.3799C237.703 34.3799 237.167 34.6846 236.809 35.2939V42H234.269V32.4902H236.66Z" fill="white"/>
<path d="M253.303 30.1523V32.4902H254.929V34.3535H253.303V39.0996C253.303 39.4512 253.371 39.7031 253.505 39.8555C253.64 40.0078 253.898 40.084 254.279 40.084C254.56 40.084 254.809 40.0635 255.026 40.0225V41.9473C254.528 42.0996 254.015 42.1758 253.488 42.1758C251.706 42.1758 250.798 41.2764 250.763 39.4775V34.3535H249.374V32.4902H250.763V30.1523H253.303Z" fill="white"/>
<path d="M259.507 33.5273C260.18 32.7188 261.027 32.3145 262.047 32.3145C264.109 32.3145 265.155 33.5127 265.184 35.9092V42H262.644V35.9795C262.644 35.4346 262.527 35.0332 262.293 34.7754C262.058 34.5117 261.669 34.3799 261.124 34.3799C260.38 34.3799 259.841 34.667 259.507 35.2412V42H256.967V28.5H259.507V33.5273Z" fill="white"/>
<path d="M272.161 42.1758C270.767 42.1758 269.63 41.748 268.751 40.8926C267.878 40.0371 267.442 38.8975 267.442 37.4736V37.2275C267.442 36.2725 267.626 35.4199 267.995 34.6699C268.364 33.9141 268.886 33.334 269.56 32.9297C270.239 32.5195 271.013 32.3145 271.88 32.3145C273.181 32.3145 274.203 32.7246 274.947 33.5449C275.697 34.3652 276.072 35.5283 276.072 37.0342V38.0713H270.017C270.099 38.6924 270.345 39.1904 270.755 39.5654C271.171 39.9404 271.696 40.1279 272.328 40.1279C273.307 40.1279 274.072 39.7734 274.622 39.0645L275.87 40.4619C275.489 41.001 274.974 41.4229 274.323 41.7275C273.673 42.0264 272.952 42.1758 272.161 42.1758ZM271.871 34.3711C271.367 34.3711 270.957 34.541 270.641 34.8809C270.33 35.2207 270.131 35.707 270.043 36.3398H273.576V36.1377C273.565 35.5752 273.412 35.1416 273.119 34.8369C272.826 34.5264 272.41 34.3711 271.871 34.3711Z" fill="white"/>
<path d="M155.349 79.2177H145.211L143.283 85H137.135L147.582 56.9367H152.94L163.444 85H157.296L155.349 79.2177ZM146.772 74.5341H153.788L150.261 64.0296L146.772 74.5341Z" fill="white"/>
<path d="M185.047 74.7654C185.047 77.9778 184.315 80.5541 182.85 82.4944C181.398 84.4218 179.432 85.3855 176.952 85.3855C174.845 85.3855 173.142 84.6531 171.844 83.1882V93.0181H166.274V64.1453H171.44L171.632 66.1883C172.982 64.5693 174.742 63.7598 176.914 63.7598C179.483 63.7598 181.482 64.7106 182.908 66.6124C184.334 68.5141 185.047 71.1354 185.047 74.4763V74.7654ZM179.477 74.3606C179.477 72.4203 179.13 70.9234 178.436 69.8697C177.755 68.8161 176.759 68.2892 175.449 68.2892C173.701 68.2892 172.5 68.9574 171.844 70.2937V78.8322C172.525 80.2071 173.74 80.8946 175.487 80.8946C178.147 80.8946 179.477 78.7166 179.477 74.3606Z" fill="white"/>
<path d="M208.79 74.7654C208.79 77.9778 208.057 80.5541 206.593 82.4944C205.141 84.4218 203.175 85.3855 200.695 85.3855C198.587 85.3855 196.885 84.6531 195.587 83.1882V93.0181H190.017V64.1453H195.182L195.375 66.1883C196.724 64.5693 198.484 63.7598 200.656 63.7598C203.226 63.7598 205.224 64.7106 206.65 66.6124C208.077 68.5141 208.79 71.1354 208.79 74.4763V74.7654ZM203.22 74.3606C203.22 72.4203 202.873 70.9234 202.179 69.8697C201.498 68.8161 200.502 68.2892 199.191 68.2892C197.444 68.2892 196.242 68.9574 195.587 70.2937V78.8322C196.268 80.2071 197.482 80.8946 199.23 80.8946C201.89 80.8946 203.22 78.7166 203.22 74.3606Z" fill="white"/>
<path d="M219.638 85H214.048V55.3947H219.638V85Z" fill="white"/>
<path d="M235.343 85.3855C232.285 85.3855 229.792 84.4475 227.865 82.5715C225.95 80.6954 224.993 78.1962 224.993 75.0738V74.5341C224.993 72.4396 225.397 70.57 226.207 68.9253C227.016 67.2677 228.16 65.9956 229.638 65.109C231.128 64.2095 232.824 63.7598 234.726 63.7598C237.579 63.7598 239.821 64.6592 241.453 66.4582C243.098 68.2571 243.92 70.8077 243.92 74.1101V76.3844H230.64C230.82 77.7465 231.36 78.8387 232.259 79.661C233.171 80.4834 234.321 80.8946 235.709 80.8946C237.855 80.8946 239.532 80.1172 240.74 78.5624L243.477 81.627C242.641 82.8092 241.511 83.7343 240.084 84.4025C238.658 85.0578 237.078 85.3855 235.343 85.3855ZM234.707 68.27C233.602 68.27 232.702 68.6426 232.008 69.3879C231.327 70.1331 230.891 71.1996 230.698 72.5874H238.446V72.1441C238.42 70.9105 238.086 69.9597 237.444 69.2915C236.801 68.6105 235.889 68.27 234.707 68.27Z" fill="white"/>
<path d="M274.848 77.6372C274.848 76.545 274.463 75.7098 273.692 75.1316C272.921 74.5405 271.533 73.9237 269.529 73.2813C267.524 72.6259 265.937 71.9835 264.768 71.3538C261.581 69.632 259.988 67.3127 259.988 64.3958C259.988 62.8796 260.412 61.5304 261.26 60.3482C262.121 59.1532 263.348 58.2216 264.941 57.5535C266.548 56.8853 268.347 56.5512 270.338 56.5512C272.343 56.5512 274.129 56.9174 275.696 57.6498C277.264 58.3694 278.478 59.3909 279.339 60.7144C280.213 62.0379 280.65 63.5413 280.65 65.2246H274.868C274.868 63.9397 274.463 62.9438 273.653 62.2371C272.844 61.5175 271.707 61.1577 270.242 61.1577C268.828 61.1577 267.73 61.4597 266.946 62.0636C266.162 62.6547 265.77 63.4385 265.77 64.4151C265.77 65.3274 266.226 66.092 267.139 66.7087C268.064 67.3255 269.419 67.9037 271.206 68.4434C274.495 69.4328 276.891 70.66 278.395 72.1248C279.898 73.5896 280.65 75.4143 280.65 77.5987C280.65 80.0272 279.731 81.9354 277.894 83.3231C276.056 84.698 273.583 85.3855 270.473 85.3855C268.314 85.3855 266.348 84.9936 264.575 84.2098C262.802 83.4131 261.446 82.3273 260.508 80.9524C259.583 79.5775 259.121 77.9842 259.121 76.1724H264.922C264.922 79.2691 266.772 80.8175 270.473 80.8175C271.848 80.8175 272.921 80.5412 273.692 79.9887C274.463 79.4233 274.848 78.6395 274.848 77.6372Z" fill="white"/>
<path d="M292.385 59.0183V64.1453H295.95V68.2314H292.385V78.6395C292.385 79.4105 292.532 79.963 292.828 80.2971C293.123 80.6312 293.689 80.7982 294.524 80.7982C295.141 80.7982 295.687 80.7532 296.162 80.6633V84.8844C295.07 85.2184 293.946 85.3855 292.789 85.3855C288.883 85.3855 286.891 83.4131 286.814 79.4683V68.2314H283.769V64.1453H286.814V59.0183H292.385Z" fill="white"/>
<path d="M299.108 74.3799C299.108 72.3111 299.506 70.4672 300.303 68.8482C301.1 67.2291 302.243 65.9763 303.734 65.0897C305.237 64.2031 306.978 63.7598 308.957 63.7598C311.771 63.7598 314.065 64.6207 315.838 66.3425C317.624 68.0644 318.62 70.403 318.825 73.3584L318.864 74.7847C318.864 77.9842 317.971 80.5541 316.185 82.4944C314.399 84.4218 312.002 85.3855 308.996 85.3855C305.989 85.3855 303.586 84.4218 301.787 82.4944C300.001 80.5669 299.108 77.9456 299.108 74.6305V74.3799ZM304.678 74.7847C304.678 76.7635 305.051 78.2797 305.796 79.3334C306.541 80.3742 307.608 80.8946 308.996 80.8946C310.345 80.8946 311.398 80.3806 312.157 79.3526C312.915 78.3118 313.294 76.6543 313.294 74.3799C313.294 72.4396 312.915 70.9362 312.157 69.8697C311.398 68.8032 310.332 68.27 308.957 68.27C307.595 68.27 306.541 68.8032 305.796 69.8697C305.051 70.9234 304.678 72.5617 304.678 74.7847Z" fill="white"/>
<path d="M335.514 69.3686C334.755 69.2658 334.087 69.2144 333.509 69.2144C331.402 69.2144 330.02 69.9275 329.365 71.3538V85H323.795V64.1453H329.057L329.211 66.6316C330.329 64.7171 331.877 63.7598 333.856 63.7598C334.473 63.7598 335.051 63.8433 335.591 64.0103L335.514 69.3686Z" fill="white"/>
<path d="M348.925 85.3855C345.867 85.3855 343.374 84.4475 341.447 82.5715C339.532 80.6954 338.575 78.1962 338.575 75.0738V74.5341C338.575 72.4396 338.98 70.57 339.789 68.9253C340.599 67.2677 341.742 65.9956 343.22 65.109C344.71 64.2095 346.407 63.7598 348.308 63.7598C351.161 63.7598 353.403 64.6592 355.035 66.4582C356.68 68.2571 357.502 70.8077 357.502 74.1101V76.3844H344.222C344.402 77.7465 344.942 78.8387 345.841 79.661C346.754 80.4834 347.904 80.8946 349.291 80.8946C351.437 80.8946 353.114 80.1172 354.322 78.5624L357.059 81.627C356.224 82.8092 355.093 83.7343 353.667 84.4025C352.24 85.0578 350.66 85.3855 348.925 85.3855ZM348.289 68.27C347.184 68.27 346.284 68.6426 345.591 69.3879C344.91 70.1331 344.473 71.1996 344.28 72.5874H352.028V72.1441C352.003 70.9105 351.668 69.9597 351.026 69.2915C350.383 68.6105 349.471 68.27 348.289 68.27Z" fill="white"/>
<path opacity="0.702542" fill-rule="evenodd" clip-rule="evenodd" d="M0.106567 58C0.106567 26.1124 25.979 0.263153 57.8935 0.263153C89.8079 0.263153 115.68 26.1124 115.68 58C115.68 89.8876 89.8079 115.737 57.8935 115.737C25.979 115.737 0.106567 89.8876 0.106567 58ZM57.8935 1.26315C26.5305 1.26315 1.10657 26.6655 1.10657 58C1.10657 89.3345 26.5305 114.737 57.8935 114.737C89.2564 114.737 114.68 89.3345 114.68 58C114.68 26.6655 89.2564 1.26315 57.8935 1.26315Z" fill="white"/>
<path fill-rule="evenodd" clip-rule="evenodd" d="M81.5984 67.1485C80.6766 70.2126 79.2231 73.2767 77.2377 76.3408C74.1888 81.1453 71.1517 83.5476 68.1265 83.5476C66.9683 83.5476 65.3139 83.1554 63.1631 82.371C61.1305 81.5866 59.3461 81.1944 57.8098 81.1944C56.3681 81.1944 54.69 81.5988 52.7755 82.4077C50.8611 83.2412 49.3012 83.6579 48.0958 83.6579C44.5033 83.6579 40.9463 80.4835 37.4246 74.1346C33.9503 67.7368 32.2131 61.5718 32.2131 55.6397C32.2131 50.0507 33.5485 45.4668 36.2193 41.8879C38.8664 38.3581 42.2225 36.5931 46.2878 36.5931C47.9895 36.5931 50.0812 36.9608 52.5628 37.6962C55.0209 38.4316 56.6517 38.7993 57.4553 38.7993C58.5188 38.7993 60.2087 38.3826 62.525 37.5491C64.9357 36.7157 66.9802 36.299 68.6582 36.299C71.4708 36.299 73.9879 37.0956 76.2096 38.689C77.4386 39.5714 78.6676 40.7971 79.8967 42.3659C78.0295 44.0083 76.6823 45.4545 75.8551 46.7047C74.3188 49.0089 73.5507 51.546 73.5507 54.316C73.5507 57.3556 74.3661 60.0887 75.9969 62.5155C77.6277 64.9423 79.4949 66.4866 81.5984 67.1485V67.1485ZM68.2683 24.018C68.2683 25.5133 67.9256 27.1802 67.2401 29.0186C66.5311 30.8571 65.4321 32.5485 63.9431 34.0928C62.6668 35.4165 61.3905 36.299 60.1142 36.7402C59.2397 37.0098 58.0107 37.2182 56.4272 37.3653C56.4981 33.7129 57.4198 30.563 59.1924 27.9156C60.9414 25.2927 63.8958 23.4787 68.0555 22.4737C68.0792 22.5472 68.1087 22.6821 68.1442 22.8782C68.1796 23.0743 68.2092 23.2091 68.2328 23.2826C68.2328 23.3807 68.2387 23.5032 68.2505 23.6503C68.2624 23.7974 68.2683 23.92 68.2683 24.018V24.018Z" fill="white"/>
</svg>
