<svg width="386" height="116" viewBox="0 0 386 116" fill="none" xmlns="http://www.w3.org/2000/svg">
<path d="M145.367 40.3633H140.744L139.865 43H137.062L141.825 30.2031H144.269L149.059 43H146.255L145.367 40.3633ZM141.456 38.2275H144.655L143.047 33.4375L141.456 38.2275Z" fill="white"/>
<path d="M152.687 33.4902L152.766 34.5889C153.446 33.7393 154.357 33.3145 155.499 33.3145C156.507 33.3145 157.257 33.6104 157.749 34.2021C158.242 34.7939 158.494 35.6787 158.505 36.8564V43H155.965V36.918C155.965 36.3789 155.848 35.9893 155.614 35.749C155.379 35.5029 154.99 35.3799 154.445 35.3799C153.73 35.3799 153.194 35.6846 152.836 36.2939V43H150.296V33.4902H152.687Z" fill="white"/>
<path d="M160.727 38.1748C160.727 36.6924 161.058 35.5117 161.721 34.6328C162.389 33.7539 163.3 33.3145 164.454 33.3145C165.38 33.3145 166.144 33.6602 166.748 34.3516V29.5H169.297V43H167.003L166.88 41.9893C166.247 42.7803 165.432 43.1758 164.436 43.1758C163.317 43.1758 162.418 42.7363 161.738 41.8574C161.064 40.9727 160.727 39.7451 160.727 38.1748ZM163.267 38.3594C163.267 39.25 163.423 39.9326 163.733 40.4072C164.044 40.8818 164.495 41.1191 165.087 41.1191C165.872 41.1191 166.426 40.7881 166.748 40.126V36.373C166.431 35.7109 165.884 35.3799 165.104 35.3799C163.88 35.3799 163.267 36.373 163.267 38.3594Z" fill="white"/>
<path d="M177.293 35.8721C176.948 35.8252 176.643 35.8018 176.379 35.8018C175.418 35.8018 174.788 36.127 174.49 36.7773V43H171.949V33.4902H174.349L174.419 34.624C174.929 33.751 175.635 33.3145 176.537 33.3145C176.819 33.3145 177.082 33.3525 177.328 33.4287L177.293 35.8721Z" fill="white"/>
<path d="M178.496 38.1572C178.496 37.2139 178.677 36.373 179.041 35.6348C179.404 34.8965 179.925 34.3252 180.605 33.9209C181.291 33.5166 182.085 33.3145 182.987 33.3145C184.27 33.3145 185.316 33.707 186.125 34.4922C186.939 35.2773 187.393 36.3438 187.487 37.6914L187.505 38.3418C187.505 39.8008 187.097 40.9727 186.283 41.8574C185.468 42.7363 184.376 43.1758 183.005 43.1758C181.633 43.1758 180.538 42.7363 179.717 41.8574C178.903 40.9785 178.496 39.7832 178.496 38.2715V38.1572ZM181.036 38.3418C181.036 39.2441 181.206 39.9355 181.546 40.416C181.885 40.8906 182.372 41.1279 183.005 41.1279C183.62 41.1279 184.1 40.8936 184.446 40.4248C184.792 39.9502 184.965 39.1943 184.965 38.1572C184.965 37.2725 184.792 36.5869 184.446 36.1006C184.1 35.6143 183.614 35.3711 182.987 35.3711C182.366 35.3711 181.885 35.6143 181.546 36.1006C181.206 36.5811 181.036 37.3281 181.036 38.3418Z" fill="white"/>
<path d="M192.434 43H189.885V33.4902H192.434V43ZM189.735 31.0293C189.735 30.6484 189.861 30.335 190.113 30.0889C190.371 29.8428 190.72 29.7197 191.159 29.7197C191.593 29.7197 191.939 29.8428 192.196 30.0889C192.454 30.335 192.583 30.6484 192.583 31.0293C192.583 31.416 192.451 31.7324 192.188 31.9785C191.93 32.2246 191.587 32.3477 191.159 32.3477C190.732 32.3477 190.386 32.2246 190.122 31.9785C189.864 31.7324 189.735 31.416 189.735 31.0293Z" fill="white"/>
<path d="M194.823 38.1748C194.823 36.6924 195.154 35.5117 195.816 34.6328C196.484 33.7539 197.395 33.3145 198.549 33.3145C199.475 33.3145 200.24 33.6602 200.843 34.3516V29.5H203.392V43H201.098L200.975 41.9893C200.342 42.7803 199.528 43.1758 198.532 43.1758C197.413 43.1758 196.513 42.7363 195.833 41.8574C195.16 40.9727 194.823 39.7451 194.823 38.1748ZM197.363 38.3594C197.363 39.25 197.518 39.9326 197.829 40.4072C198.139 40.8818 198.59 41.1191 199.182 41.1191C199.967 41.1191 200.521 40.7881 200.843 40.126V36.373C200.527 35.7109 199.979 35.3799 199.2 35.3799C197.975 35.3799 197.363 36.373 197.363 38.3594Z" fill="white"/>
<path d="M218.603 40.3633H213.98L213.101 43H210.297L215.061 30.2031H217.504L222.294 43H219.491L218.603 40.3633ZM214.692 38.2275H217.891L216.283 33.4375L214.692 38.2275Z" fill="white"/>
<path d="M232.145 38.333C232.145 39.7979 231.811 40.9727 231.143 41.8574C230.481 42.7363 229.585 43.1758 228.454 43.1758C227.493 43.1758 226.717 42.8418 226.125 42.1738V46.6562H223.585V33.4902H225.94L226.028 34.4219C226.643 33.6836 227.446 33.3145 228.436 33.3145C229.608 33.3145 230.519 33.748 231.17 34.6152C231.82 35.4824 232.145 36.6777 232.145 38.2012V38.333ZM229.605 38.1484C229.605 37.2637 229.447 36.5811 229.131 36.1006C228.82 35.6201 228.366 35.3799 227.768 35.3799C226.971 35.3799 226.424 35.6846 226.125 36.2939V40.1875C226.435 40.8145 226.989 41.1279 227.786 41.1279C228.999 41.1279 229.605 40.1348 229.605 38.1484Z" fill="white"/>
<path d="M242.972 38.333C242.972 39.7979 242.638 40.9727 241.97 41.8574C241.308 42.7363 240.411 43.1758 239.28 43.1758C238.319 43.1758 237.543 42.8418 236.951 42.1738V46.6562H234.411V33.4902H236.767L236.855 34.4219C237.47 33.6836 238.273 33.3145 239.263 33.3145C240.435 33.3145 241.346 33.748 241.996 34.6152C242.647 35.4824 242.972 36.6777 242.972 38.2012V38.333ZM240.432 38.1484C240.432 37.2637 240.274 36.5811 239.957 36.1006C239.647 35.6201 239.193 35.3799 238.595 35.3799C237.798 35.3799 237.25 35.6846 236.951 36.2939V40.1875C237.262 40.8145 237.816 41.1279 238.612 41.1279C239.825 41.1279 240.432 40.1348 240.432 38.1484Z" fill="white"/>
<path d="M250.009 38.1572C250.009 37.2139 250.19 36.373 250.554 35.6348C250.917 34.8965 251.438 34.3252 252.118 33.9209C252.804 33.5166 253.598 33.3145 254.5 33.3145C255.783 33.3145 256.829 33.707 257.638 34.4922C258.452 35.2773 258.906 36.3438 259 37.6914L259.018 38.3418C259.018 39.8008 258.61 40.9727 257.796 41.8574C256.981 42.7363 255.889 43.1758 254.518 43.1758C253.146 43.1758 252.051 42.7363 251.23 41.8574C250.416 40.9785 250.009 39.7832 250.009 38.2715V38.1572ZM252.549 38.3418C252.549 39.2441 252.719 39.9355 253.059 40.416C253.398 40.8906 253.885 41.1279 254.518 41.1279C255.133 41.1279 255.613 40.8936 255.959 40.4248C256.305 39.9502 256.478 39.1943 256.478 38.1572C256.478 37.2725 256.305 36.5869 255.959 36.1006C255.613 35.6143 255.127 35.3711 254.5 35.3711C253.879 35.3711 253.398 35.6143 253.059 36.1006C252.719 36.5811 252.549 37.3281 252.549 38.3418Z" fill="white"/>
<path d="M263.604 33.4902L263.683 34.5889C264.363 33.7393 265.274 33.3145 266.416 33.3145C267.424 33.3145 268.174 33.6104 268.666 34.2021C269.159 34.7939 269.411 35.6787 269.422 36.8564V43H266.882V36.918C266.882 36.3789 266.765 35.9893 266.531 35.749C266.296 35.5029 265.907 35.3799 265.362 35.3799C264.647 35.3799 264.111 35.6846 263.753 36.2939V43H261.213V33.4902H263.604Z" fill="white"/>
<path d="M159.535 82.7656C158.586 83.9023 157.244 84.7871 155.51 85.4199C153.775 86.041 151.854 86.3516 149.744 86.3516C147.529 86.3516 145.584 85.8711 143.908 84.9102C142.244 83.9375 140.955 82.5312 140.041 80.6914C139.139 78.8516 138.676 76.6895 138.652 74.2051V72.4648C138.652 69.9102 139.08 67.7012 139.936 65.8379C140.803 63.9629 142.045 62.5332 143.662 61.5488C145.291 60.5527 147.195 60.0547 149.375 60.0547C152.41 60.0547 154.783 60.7812 156.494 62.2344C158.205 63.6758 159.219 65.7793 159.535 68.5449H154.402C154.168 67.0801 153.646 66.0078 152.838 65.3281C152.041 64.6484 150.939 64.3086 149.533 64.3086C147.74 64.3086 146.375 64.9824 145.438 66.3301C144.5 67.6777 144.025 69.6816 144.014 72.3418V73.9766C144.014 76.6602 144.523 78.6875 145.543 80.0586C146.562 81.4297 148.057 82.1152 150.025 82.1152C152.006 82.1152 153.418 81.6934 154.262 80.8496V76.4375H149.463V72.5527H159.535V82.7656Z" fill="white"/>
<path d="M186.216 73.7832C186.216 76.3027 185.77 78.5117 184.88 80.4102C183.989 82.3086 182.712 83.7734 181.048 84.8047C179.395 85.8359 177.497 86.3516 175.352 86.3516C173.231 86.3516 171.339 85.8418 169.675 84.8223C168.011 83.8027 166.722 82.3496 165.807 80.4629C164.893 78.5645 164.431 76.3848 164.419 73.9238V72.6582C164.419 70.1387 164.87 67.9238 165.772 66.0137C166.686 64.0918 167.97 62.6211 169.622 61.6016C171.286 60.5703 173.184 60.0547 175.317 60.0547C177.45 60.0547 179.343 60.5703 180.995 61.6016C182.659 62.6211 183.942 64.0918 184.845 66.0137C185.759 67.9238 186.216 70.1328 186.216 72.6406V73.7832ZM180.872 72.623C180.872 69.9395 180.391 67.9004 179.431 66.5059C178.47 65.1113 177.098 64.4141 175.317 64.4141C173.548 64.4141 172.182 65.1055 171.222 66.4883C170.261 67.8594 169.774 69.875 169.763 72.5352V73.7832C169.763 76.3965 170.243 78.4238 171.204 79.8652C172.165 81.3066 173.548 82.0273 175.352 82.0273C177.122 82.0273 178.481 81.3359 179.431 79.9531C180.38 78.5586 180.86 76.5312 180.872 73.8711V72.623Z" fill="white"/>
<path d="M212.439 73.7832C212.439 76.3027 211.994 78.5117 211.103 80.4102C210.213 82.3086 208.935 83.7734 207.271 84.8047C205.619 85.8359 203.72 86.3516 201.576 86.3516C199.455 86.3516 197.562 85.8418 195.898 84.8223C194.234 83.8027 192.945 82.3496 192.031 80.4629C191.117 78.5645 190.654 76.3848 190.642 73.9238V72.6582C190.642 70.1387 191.093 67.9238 191.996 66.0137C192.91 64.0918 194.193 62.6211 195.845 61.6016C197.509 60.5703 199.408 60.0547 201.541 60.0547C203.674 60.0547 205.566 60.5703 207.218 61.6016C208.882 62.6211 210.166 64.0918 211.068 66.0137C211.982 67.9238 212.439 70.1328 212.439 72.6406V73.7832ZM207.095 72.623C207.095 69.9395 206.615 67.9004 205.654 66.5059C204.693 65.1113 203.322 64.4141 201.541 64.4141C199.771 64.4141 198.406 65.1055 197.445 66.4883C196.484 67.8594 195.998 69.875 195.986 72.5352V73.7832C195.986 76.3965 196.466 78.4238 197.427 79.8652C198.388 81.3066 199.771 82.0273 201.576 82.0273C203.345 82.0273 204.705 81.3359 205.654 79.9531C206.603 78.5586 207.084 76.5312 207.095 73.8711V72.623Z" fill="white"/>
<path d="M237.889 82.7656C236.94 83.9023 235.598 84.7871 233.864 85.4199C232.129 86.041 230.208 86.3516 228.098 86.3516C225.883 86.3516 223.938 85.8711 222.262 84.9102C220.598 83.9375 219.309 82.5312 218.395 80.6914C217.493 78.8516 217.03 76.6895 217.006 74.2051V72.4648C217.006 69.9102 217.434 67.7012 218.29 65.8379C219.157 63.9629 220.399 62.5332 222.016 61.5488C223.645 60.5527 225.549 60.0547 227.729 60.0547C230.764 60.0547 233.137 60.7812 234.848 62.2344C236.559 63.6758 237.573 65.7793 237.889 68.5449H232.756C232.522 67.0801 232 66.0078 231.192 65.3281C230.395 64.6484 229.293 64.3086 227.887 64.3086C226.094 64.3086 224.729 64.9824 223.792 66.3301C222.854 67.6777 222.379 69.6816 222.368 72.3418V73.9766C222.368 76.6602 222.877 78.6875 223.897 80.0586C224.917 81.4297 226.411 82.1152 228.379 82.1152C230.36 82.1152 231.772 81.6934 232.616 80.8496V76.4375H227.817V72.5527H237.889V82.7656Z" fill="white"/>
<path d="M248.82 81.7637H260.017V86H243.546V60.4062H248.82V81.7637Z" fill="white"/>
<path d="M279.824 74.9082H269.699V81.7637H281.582V86H264.426V60.4062H281.547V64.6777H269.699V70.7773H279.824V74.9082Z" fill="white"/>
<path d="M301.65 76.9824V86H296.377V60.4062H306.361C308.283 60.4062 309.971 60.7578 311.424 61.4609C312.889 62.1641 314.014 63.166 314.799 64.4668C315.584 65.7559 315.976 67.2266 315.976 68.8789C315.976 71.3867 315.115 73.3672 313.392 74.8203C311.681 76.2617 309.308 76.9824 306.273 76.9824H301.65ZM301.65 72.7109H306.361C307.756 72.7109 308.816 72.3828 309.543 71.7266C310.281 71.0703 310.65 70.1328 310.65 68.9141C310.65 67.6602 310.281 66.6465 309.543 65.873C308.805 65.0996 307.785 64.7012 306.484 64.6777H301.65V72.7109Z" fill="white"/>
<path d="M326.257 81.7637H337.454V86H320.983V60.4062H326.257V81.7637Z" fill="white"/>
<path d="M356.664 80.7266H347.417L345.66 86H340.052L349.58 60.4062H354.466L364.046 86H358.439L356.664 80.7266ZM348.841 76.4551H355.24L352.023 66.875L348.841 76.4551Z" fill="white"/>
<path d="M373.992 71.9375L379.319 60.4062H385.084L376.682 76.7188V86H371.321V76.7188L362.918 60.4062H368.701L373.992 71.9375Z" fill="white"/>
<path opacity="0.701318" fill-rule="evenodd" clip-rule="evenodd" d="M0.106567 58C0.106567 26.1124 25.979 0.263184 57.8935 0.263184C89.8079 0.263184 115.68 26.1124 115.68 58C115.68 89.8876 89.8079 115.737 57.8935 115.737C25.979 115.737 0.106567 89.8876 0.106567 58ZM57.8935 1.26318C26.5305 1.26318 1.10657 26.6655 1.10657 58C1.10657 89.3345 26.5305 114.737 57.8935 114.737C89.2564 114.737 114.68 89.3345 114.68 58C114.68 26.6655 89.2564 1.26318 57.8935 1.26318Z" fill="white"/>
<path fill-rule="evenodd" clip-rule="evenodd" d="M76.6714 49.3604L40.3648 29.6088C39.3353 29.0516 38.3858 28.9219 37.6167 29.1593L67.3552 58.5796L76.6714 49.3604" fill="url(#paint0_linear)"/>
<path fill-rule="evenodd" clip-rule="evenodd" d="M76.719 67.8443L89.1133 61.1016C91.6266 59.7295 91.6266 57.4971 89.1133 56.1283L76.6731 49.3604L67.3552 58.5796L76.719 67.8443" fill="url(#paint1_linear)"/>
<path fill-rule="evenodd" clip-rule="evenodd" d="M37.615 29.1593C36.5107 29.5011 35.796 30.6072 35.796 32.2806L35.8028 84.9493C35.8028 86.6042 36.4954 87.6935 37.5674 88.0571L67.3552 58.5846L37.615 29.1593" fill="url(#paint2_linear)"/>
<path fill-rule="evenodd" clip-rule="evenodd" d="M37.5674 88.0571C38.3416 88.3164 39.3098 88.1952 40.3648 87.6228L76.7139 67.8443L67.3552 58.5847L37.5674 88.0571" fill="url(#paint3_linear)"/>
<mask id="mask0" mask-type="alpha" maskUnits="userSpaceOnUse" x="37" y="58" width="40" height="31">
<path fill-rule="evenodd" clip-rule="evenodd" d="M37.5674 88.0571C38.3416 88.3164 39.3098 88.1952 40.3648 87.6228L76.7139 67.8443L67.3552 58.5847L37.5674 88.0571" fill="white"/>
</mask>
<g mask="url(#mask0)">
</g>
<defs>
<linearGradient id="paint0_linear" x1="19.9905" y1="26.0593" x2="31.8444" y2="66.3356" gradientUnits="userSpaceOnUse">
<stop stop-color="#19A3B4"/>
<stop offset="0.348168" stop-color="#5BC3AF"/>
<stop offset="0.922336" stop-color="#C8F7A6"/>
<stop offset="1" stop-color="#D7FEA5"/>
</linearGradient>
<linearGradient id="paint1_linear" x1="36.8705" y1="36.5048" x2="50.5163" y2="81.0419" gradientUnits="userSpaceOnUse">
<stop stop-color="#FC227C"/>
<stop offset="1" stop-color="#FEEB7B"/>
</linearGradient>
<linearGradient id="paint2_linear" x1="29.2623" y1="26.3349" x2="49.2806" y2="78.6418" gradientUnits="userSpaceOnUse">
<stop stop-color="#0E4DA0"/>
<stop offset="1" stop-color="#6BFED4"/>
</linearGradient>
<linearGradient id="paint3_linear" x1="67.8364" y1="44.7671" x2="30.4554" y2="87.7645" gradientUnits="userSpaceOnUse">
<stop stop-color="#FC472E"/>
<stop offset="0.00331892" stop-color="#FC472F"/>
<stop offset="1" stop-color="#893CD8"/>
</linearGradient>
</defs>
</svg>
