<?xml version="1.0" standalone="no"?>
<!DOCTYPE svg PUBLIC "-//W3C//DTD SVG 20010904//EN"
 "http://www.w3.org/TR/2001/REC-SVG-20010904/DTD/svg10.dtd">
<svg version="1.0" xmlns="http://www.w3.org/2000/svg"
 width="1024.000000pt" height="1024.000000pt" viewBox="0 0 1024.000000 1024.000000"
 preserveAspectRatio="xMidYMid meet">
<metadata>
Created by potrace 1.11, written by Peter Selinger 2001-2013
</metadata>
<g transform="translate(0.000000,1024.000000) scale(0.100000,-0.100000)"
fill="#000000" stroke="none">
<path d="M0 5120 l0 -5120 5120 0 5120 0 0 5120 0 5120 -5120 0 -5120 0 0
-5120z m6880 2273 c167 -57 309 -181 384 -335 81 -166 77 -59 74 -1763 l-3
-1510 -23 -70 c-76 -226 -237 -381 -471 -452 -52 -16 -221 -18 -2386 -23
l-2330 -5 -53 -22 c-229 -98 -396 -237 -505 -423 l-27 -45 -2 570 c-2 314 -1
1250 2 2080 l5 1510 22 58 c44 114 86 181 168 263 63 64 98 90 167 124 47 23
110 48 140 55 43 11 512 13 2413 12 l2360 -2 65 -22z m1603 -3356 l138 -105
-165 -126 c-91 -69 -168 -126 -171 -126 -3 0 -5 34 -5 76 l0 77 -45 -6 c-96
-14 -193 -82 -260 -183 -20 -30 -39 -54 -41 -51 -7 7 16 161 31 208 23 68 68
134 116 169 45 32 124 60 171 60 26 0 28 3 28 38 0 20 3 54 6 74 l7 38 26 -19
c14 -10 88 -66 164 -124z"/>
</g>
</svg>
